<svg width="1600" height="1000" viewBox="0 0 1600 1000" fill="none" xmlns="http://www.w3.org/2000/svg">
  <rect width="1600" height="1000" rx="36" fill="#1A1A2E"/>
  <rect x="88" y="116" width="1424" height="796" rx="28" fill="#16213E" stroke="#2D3436"/>
  <!-- Terminal header -->
  <rect x="136" y="164" width="1328" height="48" rx="12" fill="#0F3460"/>
  <circle cx="172" cy="188" r="8" fill="#E94560"/>
  <circle cx="198" cy="188" r="8" fill="#F5C518"/>
  <circle cx="224" cy="188" r="8" fill="#53D769"/>
  <rect x="560" y="176" width="200" height="24" rx="12" fill="#1A1A2E"/>
  <text x="660" y="193" text-anchor="middle" font-size="14" fill="#A0A0B0">arc-core</text>
  <!-- Left panel: file tree -->
  <rect x="136" y="232" width="320" height="620" rx="16" fill="#0F3460"/>
  <rect x="166" y="268" width="200" height="14" rx="7" fill="#E94560"/>
  <rect x="186" y="302" width="180" height="12" rx="6" fill="#53D769"/>
  <rect x="186" y="330" width="160" height="12" rx="6" fill="#A0A0B0"/>
  <rect x="186" y="358" width="140" height="12" rx="6" fill="#A0A0B0"/>
  <rect x="166" y="390" width="200" height="14" rx="7" fill="#F5C518"/>
  <rect x="186" y="424" width="170" height="12" rx="6" fill="#A0A0B0"/>
  <rect x="186" y="452" width="190" height="12" rx="6" fill="#A0A0B0"/>
  <rect x="166" y="484" width="200" height="14" rx="7" fill="#53D769"/>
  <rect x="186" y="518" width="150" height="12" rx="6" fill="#A0A0B0"/>
  <!-- Center: code editor -->
  <rect x="480" y="232" width="580" height="620" rx="16" fill="#1A1A2E"/>
  <rect x="510" y="268" width="60" height="14" rx="7" fill="#E94560"/>
  <rect x="510" y="300" width="400" height="10" rx="5" fill="#53D769"/>
  <rect x="530" y="326" width="350" height="10" rx="5" fill="#F5C518"/>
  <rect x="530" y="352" width="380" height="10" rx="5" fill="#A0A0B0"/>
  <rect x="530" y="378" width="300" height="10" rx="5" fill="#E94560"/>
  <rect x="510" y="404" width="420" height="10" rx="5" fill="#53D769"/>
  <rect x="530" y="430" width="360" height="10" rx="5" fill="#A0A0B0"/>
  <rect x="510" y="462" width="200" height="14" rx="7" fill="#F5C518"/>
  <rect x="510" y="494" width="380" height="10" rx="5" fill="#A0A0B0"/>
  <rect x="530" y="520" width="340" height="10" rx="5" fill="#53D769"/>
  <!-- Right panel: agent presets -->
  <rect x="1084" y="232" width="380" height="290" rx="16" fill="#0F3460"/>
  <rect x="1114" y="268" width="120" height="14" rx="7" fill="#F5C518"/>
  <rect x="1114" y="310" width="320" height="56" rx="14" fill="#1A1A2E" stroke="#2D3436"/>
  <rect x="1114" y="382" width="320" height="56" rx="14" fill="#1A1A2E" stroke="#E94560"/>
  <rect x="1114" y="454" width="320" height="56" rx="14" fill="#1A1A2E" stroke="#2D3436"/>
  <!-- Bottom right: memory panel -->
  <rect x="1084" y="540" width="380" height="312" rx="16" fill="#0F3460"/>
  <rect x="1114" y="576" width="100" height="14" rx="7" fill="#53D769"/>
  <rect x="1114" y="614" width="320" height="40" rx="10" fill="#1A1A2E"/>
  <rect x="1114" y="666" width="320" height="40" rx="10" fill="#1A1A2E"/>
  <rect x="1114" y="718" width="320" height="40" rx="10" fill="#1A1A2E"/>
</svg>