<svg width="1600" height="1000" viewBox="0 0 1600 1000" fill="none" xmlns="http://www.w3.org/2000/svg">
  <rect width="1600" height="1000" fill="#F2EDE4"/>
  <rect x="88" y="116" width="1424" height="796" rx="28" fill="#FCF8F2" stroke="#DDD2C3"/>
  <rect x="136" y="164" width="248" height="700" rx="22" fill="#1F2627"/>
  <rect x="170" y="214" width="146" height="18" rx="9" fill="#8DB4B8"/>
  <rect x="170" y="278" width="180" height="54" rx="16" fill="#2D3436"/>
  <rect x="170" y="350" width="180" height="54" rx="16" fill="#2D3436"/>
  <rect x="170" y="422" width="180" height="54" rx="16" fill="#2D3436"/>
  <rect x="432" y="164" width="612" height="436" rx="24" fill="#FFFFFF" stroke="#D8CAB5"/>
  <rect x="476" y="214" width="196" height="18" rx="9" fill="#2D3436"/>
  <rect x="476" y="264" width="120" height="14" rx="7" fill="#D2B48C"/>
  <rect x="476" y="320" width="524" height="232" rx="20" fill="#1F2627"/>
  <rect x="510" y="362" width="220" height="14" rx="7" fill="#8DB4B8"/>
  <rect x="510" y="406" width="312" height="14" rx="7" fill="#4E6D71"/>
  <rect x="510" y="450" width="274" height="14" rx="7" fill="#8DB4B8"/>
  <rect x="510" y="494" width="168" height="14" rx="7" fill="#4E6D71"/>
  <rect x="1092" y="164" width="372" height="436" rx="24" fill="#FFFFFF" stroke="#D8CAB5"/>
  <rect x="1136" y="214" width="154" height="18" rx="9" fill="#2D3436"/>
  <rect x="1136" y="278" width="284" height="116" rx="20" fill="#F8F3EB"/>
  <rect x="1136" y="422" width="284" height="116" rx="20" fill="#D2B48C"/>
  <rect x="432" y="628" width="1032" height="236" rx="24" fill="#FFFFFF" stroke="#D8CAB5"/>
  <rect x="476" y="676" width="214" height="18" rx="9" fill="#2D3436"/>
  <rect x="476" y="730" width="940" height="86" rx="18" fill="#FCF8F2"/>
  <circle cx="1218" cy="336" r="42" fill="#9F6C3A"/>
  <circle cx="1282" cy="336" r="42" fill="#2D3436"/>
</svg>
