<svg width="1600" height="1000" viewBox="0 0 1600 1000" fill="none" xmlns="http://www.w3.org/2000/svg">
  <rect width="1600" height="1000" rx="36" fill="#F4EEE5"/>
  <rect x="88" y="116" width="1424" height="796" rx="28" fill="#FCF8F2" stroke="#DDD2C3"/>
  <!-- Left sidebar -->
  <rect x="136" y="164" width="284" height="700" rx="22" fill="#F2E9DC"/>
  <rect x="166" y="214" width="154" height="18" rx="9" fill="#9F6C3A"/>
  <rect x="166" y="262" width="218" height="48" rx="14" fill="#FFFFFF" stroke="#D8CAB5"/>
  <rect x="166" y="326" width="218" height="48" rx="14" fill="#FFFFFF" stroke="#D8CAB5"/>
  <rect x="166" y="390" width="218" height="48" rx="14" fill="#FFFFFF" stroke="#D8CAB5"/>
  <!-- Goal progress circles -->
  <circle cx="275" cy="520" r="60" fill="none" stroke="#D8CAB5" stroke-width="8"/>
  <circle cx="275" cy="520" r="60" fill="none" stroke="#9F6C3A" stroke-width="8" stroke-dasharray="280 377" stroke-linecap="round"/>
  <text x="275" y="528" text-anchor="middle" font-size="28" font-weight="600" fill="#2D3436">74%</text>
  <!-- Main content: goal cards -->
  <rect x="472" y="164" width="468" height="260" rx="24" fill="#FFFFFF" stroke="#D8CAB5"/>
  <rect x="520" y="212" width="200" height="18" rx="9" fill="#2D3436"/>
  <rect x="520" y="252" width="372" height="12" rx="6" fill="#D8CAB5"/>
  <!-- Proof badges -->
  <rect x="520" y="290" width="120" height="32" rx="16" fill="#E7D7BF"/>
  <rect x="656" y="290" width="100" height="32" rx="16" fill="#D2B48C"/>
  <rect x="772" y="290" width="80" height="32" rx="16" fill="#9F6C3A"/>
  <!-- Buddy avatars -->
  <circle cx="560" cy="380" r="28" fill="#E7D7BF"/>
  <circle cx="610" cy="380" r="28" fill="#D2B48C"/>
  <circle cx="660" cy="380" r="28" fill="#F2E9DC"/>
  <rect x="700" y="366" width="80" height="28" rx="14" fill="#9F6C3A"/>
  <!-- Right panel: activity feed -->
  <rect x="968" y="164" width="496" height="692" rx="24" fill="#FFFFFF" stroke="#D8CAB5"/>
  <rect x="1014" y="212" width="180" height="18" rx="9" fill="#2D3436"/>
  <!-- Feed items -->
  <rect x="1014" y="260" width="404" height="80" rx="16" fill="#FCF8F2"/>
  <rect x="1014" y="356" width="404" height="80" rx="16" fill="#FCF8F2"/>
  <rect x="1014" y="452" width="404" height="80" rx="16" fill="#FCF8F2"/>
  <rect x="1014" y="548" width="404" height="80" rx="16" fill="#FCF8F2"/>
  <!-- Streak indicators -->
  <rect x="1034" y="278" width="14" height="14" rx="7" fill="#9F6C3A"/>
  <rect x="1058" y="278" width="14" height="14" rx="7" fill="#9F6C3A"/>
  <rect x="1082" y="278" width="14" height="14" rx="7" fill="#9F6C3A"/>
  <rect x="1106" y="278" width="14" height="14" rx="7" fill="#D8CAB5"/>
  <rect x="1130" y="278" width="14" height="14" rx="7" fill="#D8CAB5"/>
  <!-- Bottom section -->
  <rect x="472" y="460" width="468" height="400" rx="24" fill="#FFFFFF" stroke="#D8CAB5"/>
  <rect x="520" y="508" width="160" height="18" rx="9" fill="#2D3436"/>
  <!-- Season timer -->
  <rect x="520" y="550" width="372" height="48" rx="14" fill="#F2E9DC"/>
  <rect x="540" y="562" width="200" height="24" rx="12" fill="#9F6C3A"/>
</svg>