<svg width="1600" height="1000" viewBox="0 0 1600 1000" fill="none" xmlns="http://www.w3.org/2000/svg">
  <rect width="1600" height="1000" rx="36" fill="#F4EEE5"/>
  <rect x="88" y="116" width="1424" height="796" rx="28" fill="#FCF8F2" stroke="#DDD2C3"/>
  <rect x="136" y="164" width="284" height="700" rx="22" fill="#F2E9DC"/>
  <rect x="166" y="214" width="154" height="18" rx="9" fill="#9F6C3A"/>
  <rect x="166" y="262" width="218" height="56" rx="16" fill="#FFFFFF" stroke="#D8CAB5"/>
  <rect x="166" y="338" width="218" height="56" rx="16" fill="#FFFFFF" stroke="#D8CAB5"/>
  <rect x="166" y="414" width="218" height="56" rx="16" fill="#FFFFFF" stroke="#D8CAB5"/>
  <rect x="166" y="490" width="218" height="56" rx="16" fill="#FFFFFF" stroke="#D8CAB5"/>
  <rect x="472" y="164" width="468" height="324" rx="24" fill="#FFFFFF" stroke="#D8CAB5"/>
  <rect x="520" y="212" width="242" height="18" rx="9" fill="#2D3436"/>
  <rect x="520" y="258" width="372" height="12" rx="6" fill="#D8CAB5"/>
  <circle cx="600" cy="392" r="58" fill="#E7D7BF"/>
  <circle cx="706" cy="392" r="44" fill="#F2E9DC"/>
  <circle cx="796" cy="392" r="74" fill="#D2B48C"/>
  <circle cx="864" cy="382" r="36" fill="#2D3436"/>
  <rect x="968" y="164" width="496" height="324" rx="24" fill="#FFFFFF" stroke="#D8CAB5"/>
  <rect x="1014" y="212" width="220" height="18" rx="9" fill="#2D3436"/>
  <rect x="1014" y="262" width="404" height="14" rx="7" fill="#D8CAB5"/>
  <rect x="1014" y="318" width="404" height="74" rx="18" fill="#F8F3EB"/>
  <rect x="1014" y="410" width="174" height="26" rx="13" fill="#9F6C3A"/>
  <rect x="472" y="524" width="992" height="340" rx="24" fill="#FFFFFF" stroke="#D8CAB5"/>
  <rect x="520" y="572" width="190" height="18" rx="9" fill="#2D3436"/>
  <rect x="520" y="630" width="896" height="66" rx="18" fill="#FCF8F2"/>
  <rect x="520" y="720" width="896" height="66" rx="18" fill="#FCF8F2"/>
  <rect x="544" y="654" width="122" height="18" rx="9" fill="#D2B48C"/>
  <rect x="742" y="654" width="148" height="18" rx="9" fill="#2D3436"/>
  <rect x="970" y="654" width="128" height="18" rx="9" fill="#D2B48C"/>
  <rect x="544" y="744" width="164" height="18" rx="9" fill="#D2B48C"/>
  <rect x="790" y="744" width="210" height="18" rx="9" fill="#2D3436"/>
</svg>
