<svg width="1600" height="1000" viewBox="0 0 1600 1000" fill="none" xmlns="http://www.w3.org/2000/svg">
  <rect width="1600" height="1000" fill="#EEE5D7"/>
  <rect x="88" y="88" width="1424" height="824" rx="36" fill="#F7F1E8" stroke="#D7C8B1"/>
  <rect x="208" y="220" width="486" height="518" rx="28" fill="#E4D7C6"/>
  <path d="M254 650C352 540 414 510 484 458C534 422 614 364 648 300" stroke="#9F6C3A" stroke-width="16" stroke-linecap="round"/>
  <circle cx="484" cy="458" r="26" fill="#2E3434"/>
  <circle cx="648" cy="300" r="26" fill="#9F6C3A"/>
  <circle cx="352" cy="566" r="26" fill="#9F6C3A"/>
  <rect x="786" y="220" width="232" height="154" rx="24" fill="#D7C1A3"/>
  <rect x="1054" y="220" width="232" height="154" rx="24" fill="#E2D3BF"/>
  <rect x="786" y="410" width="500" height="118" rx="24" fill="#EFE6D8"/>
  <rect x="786" y="564" width="500" height="118" rx="24" fill="#EFE6D8"/>
  <rect x="786" y="718" width="500" height="20" rx="10" fill="#D2B892"/>
  <text x="786" y="188" fill="#8C6946" font-family="Avenir Next, Arial, sans-serif" font-size="30" letter-spacing="8">LOTS / PRICE / DISTANCE</text>
</svg>
