<svg width="1600" height="1000" viewBox="0 0 1600 1000" fill="none" xmlns="http://www.w3.org/2000/svg">
  <rect width="1600" height="1000" fill="#EAEFE9"/>
  <rect x="88" y="116" width="1424" height="796" rx="28" fill="#F9FCF7" stroke="#D6DFD3"/>
  <rect x="136" y="164" width="948" height="700" rx="24" fill="#DCE8D9"/>
  <path d="M216 700C334 604 418 596 538 484C664 366 700 304 824 284C910 270 954 310 1022 284" stroke="#2D3436" stroke-width="20" stroke-linecap="round"/>
  <circle cx="320" cy="618" r="26" fill="#E6B65E"/>
  <circle cx="538" cy="484" r="26" fill="#D27361"/>
  <circle cx="824" cy="284" r="26" fill="#7AA17C"/>
  <circle cx="1016" cy="286" r="26" fill="#E6B65E"/>
  <rect x="226" y="242" width="194" height="84" rx="20" fill="#F9FCF7" stroke="#C9D6C5"/>
  <rect x="258" y="270" width="72" height="28" rx="14" fill="#E6B65E"/>
  <rect x="824" y="534" width="198" height="104" rx="20" fill="#F9FCF7" stroke="#C9D6C5"/>
  <rect x="1118" y="164" width="346" height="700" rx="24" fill="#FFFFFF" stroke="#D6DFD3"/>
  <rect x="1162" y="214" width="154" height="18" rx="9" fill="#2D3436"/>
  <rect x="1162" y="278" width="258" height="124" rx="20" fill="#EFF5EE"/>
  <rect x="1162" y="430" width="258" height="124" rx="20" fill="#EFF5EE"/>
  <rect x="1162" y="582" width="258" height="124" rx="20" fill="#EFF5EE"/>
  <rect x="1162" y="734" width="188" height="26" rx="13" fill="#2D3436"/>
</svg>
