<svg width="1600" height="1100" viewBox="0 0 1600 1100" fill="none" xmlns="http://www.w3.org/2000/svg">
  <rect width="1600" height="1100" rx="56" fill="#F4EFE7"/>
  <rect x="64" y="64" width="1472" height="972" rx="40" fill="#FFF9F2" stroke="#D9CCBC"/>
  <rect x="304" y="108" width="992" height="884" rx="46" fill="#14191C"/>
  <rect x="380" y="184" width="840" height="128" rx="28" fill="#21282C"/>
  <rect x="432" y="234" width="186" height="18" rx="9" fill="#EEE7DE" fill-opacity="0.3"/>
  <rect x="1032" y="224" width="136" height="38" rx="19" fill="#D7AB74"/>
  <rect x="380" y="356" width="840" height="132" rx="28" fill="#21282C"/>
  <rect x="432" y="406" width="228" height="18" rx="9" fill="#EEE7DE" fill-opacity="0.3"/>
  <rect x="1020" y="388" width="148" height="68" rx="24" fill="#2F373B"/>
  <rect x="380" y="532" width="840" height="132" rx="28" fill="#F2E7D8"/>
  <rect x="432" y="582" width="250" height="18" rx="9" fill="#A28A71"/>
  <rect x="380" y="708" width="840" height="208" rx="28" fill="#21282C"/>
  <rect x="432" y="760" width="190" height="18" rx="9" fill="#EEE7DE" fill-opacity="0.3"/>
  <path d="M432 844H808" stroke="#EEE7DE" stroke-width="18" stroke-linecap="round" stroke-dasharray="1 32"/>
  <rect x="968" y="760" width="188" height="48" rx="24" fill="#D7AB74"/>
  <rect x="968" y="828" width="188" height="48" rx="24" fill="#2E363A"/>
</svg>
